<svg width="14" height="13" viewBox="0 0 14 13" fill="none" xmlns="http://www.w3.org/2000/svg">
<path d="M3.01868 12.4974C2.81203 12.4974 2.65554 12.3101 2.69166 12.1059L3.09404 9.83133H0.832232C0.625894 9.83133 0.469496 9.64457 0.505061 9.44061L0.62131 8.77409C0.649123 8.61466 0.787134 8.49828 0.948481 8.49828H3.32654L4.03067 4.49914H1.76887C1.56253 4.49914 1.40613 4.31236 1.4417 4.10843L1.55794 3.44191C1.58576 3.28244 1.72377 3.16609 1.88512 3.16609H4.26317L4.68616 0.775021C4.7143 0.615915 4.85214 0.5 5.01318 0.5H5.66708C5.87371 0.5 6.03022 0.68734 5.99408 0.891503L5.59173 3.16609H9.5774L10.0004 0.775021C10.0285 0.615915 10.1664 0.5 10.3274 0.5H10.9813C11.188 0.5 11.3445 0.68734 11.3083 0.891503L10.906 3.16609H13.1678C13.3741 3.16609 13.5305 3.35287 13.4949 3.5568L13.3787 4.22333C13.3509 4.38279 13.2129 4.49914 13.0515 4.49914H10.6735L9.96933 8.49828H12.2311C12.4375 8.49828 12.5939 8.68504 12.5583 8.889L12.442 9.55552C12.4143 9.71496 12.2762 9.83133 12.1149 9.83133H9.73683L9.31382 12.2224C9.28572 12.3815 9.14788 12.4974 8.98679 12.4974H8.33294C8.12629 12.4974 7.96978 12.3101 8.00592 12.1059L8.40827 9.83133H4.4226L3.99961 12.2224C3.97147 12.3815 3.83362 12.4974 3.67258 12.4974H3.01868ZM5.35953 4.49914L4.65539 8.49828H8.64104L9.34517 4.49914H5.35953Z" fill="#72767D"/>
</svg>
