<?xml version="1.0" encoding="UTF-8"?>
<svg version="1.1" xmlns="http://www.w3.org/2000/svg" width="795" height="799">
<path d="M0 0 C6.94820646 5.96939013 11.44044162 12.44839112 15.6875 20.5 C16.89932672 22.72939114 18.1115783 24.95855137 19.32421875 27.1875 C19.93313965 28.31929687 20.54206055 29.45109375 21.16943359 30.6171875 C24.05270329 35.94535299 27.02871272 41.22058473 30 46.5 C31.16844487 48.58567084 32.33641276 50.67160896 33.50390625 52.7578125 C35.82297097 56.89913811 38.14338726 61.03970218 40.46484375 65.1796875 C46.52060086 75.98203312 52.55608874 86.79513013 58.5625 97.625 C63.69299109 106.874503 68.86904068 116.09650117 74.08618164 125.29736328 C78.91323741 133.82106505 83.66515448 142.38570727 88.4140625 150.953125 C92.40939242 158.15458387 96.43777796 165.33608132 100.5 172.5 C105.86059989 181.95366878 111.14537251 191.44797817 116.4140625 200.953125 C120.40939242 208.15458387 124.43777796 215.33608132 128.5 222.5 C133.86059989 231.95366878 139.14537251 241.44797817 144.4140625 250.953125 C148.40939242 258.15458387 152.43777796 265.33608132 156.5 272.5 C161.86059989 281.95366878 167.14537251 291.44797817 172.4140625 300.953125 C176.40939242 308.15458387 180.43777796 315.33608132 184.5 322.5 C189.86059989 331.95366878 195.14537251 341.44797817 200.4140625 350.953125 C204.4093928 358.15458455 208.43784121 365.33604504 212.5 372.5 C217.83319092 381.90707649 223.09677112 391.35149321 228.34155273 400.80810547 C234.28632382 411.52472941 240.27223889 422.21800966 246.26611328 432.90722656 C249.1793914 438.10370745 252.08952827 443.30194696 255 448.5 C256.1666518 450.58334166 257.33331846 452.66667499 258.5 454.75 C260.83333333 458.91666667 263.16666667 463.08333333 265.5 467.25 C266.07782227 468.28181396 266.65564453 469.31362793 267.25097656 470.37670898 C268.41442769 472.45432349 269.57783933 474.53196011 270.74121094 476.60961914 C273.70674732 481.90563517 276.6730271 487.20123258 279.640625 492.49609375 C284.77401615 501.65654175 289.90646405 510.81731696 295 520 C298.94589801 527.11112685 302.90596459 534.21426031 306.875 541.3125 C307.46587402 542.37098145 308.05674805 543.42946289 308.66552734 544.52001953 C311.54379992 549.66411608 314.4470764 554.78993721 317.421875 559.87890625 C317.96215332 560.80727295 318.50243164 561.73563965 319.05908203 562.69213867 C320.06273748 564.41168493 321.07350686 566.12711036 322.09326172 567.8371582 C329.30589134 580.21421395 333.3871663 593.32442236 329.8125 607.5625 C326.05725393 619.65130583 319.79942572 628.99697855 309.00390625 635.921875 C298.94061126 641.20870358 289.05117562 643.45738804 277.73731518 643.38031673 C276.6533232 643.38497665 275.56933123 643.38963657 274.45249102 643.3944377 C270.83101086 643.40636009 267.20990778 643.39700259 263.58842468 643.38768005 C260.96139953 643.39185417 258.33440071 643.39721055 255.70738345 643.40399987 C250.00123712 643.4163475 244.29517304 643.41758746 238.58901787 643.41144943 C230.1035134 643.40234618 221.61808479 643.41040021 213.13258612 643.42174067 C197.97526742 643.44139811 182.81798294 643.44375673 167.66065453 643.43854547 C154.39428213 643.43398666 141.12792326 643.43458952 127.86155128 643.44038582 C126.08137694 643.44114269 124.3012026 643.44189867 122.52102825 643.44265376 C119.83839189 643.44379897 117.15575554 643.44494885 114.47311918 643.44611301 C89.53490021 643.4568168 64.59668574 643.46154453 39.65846539 643.45364285 C38.71856263 643.45334567 37.77865988 643.4530485 36.81027523 643.45274232 C29.17782504 643.45029344 21.54537491 643.44768182 13.91292478 643.44505819 C-15.85551623 643.43495673 -45.62390084 643.44330973 -75.39233398 643.46655273 C-108.84694457 643.49263169 -142.30152119 643.50547152 -175.75614232 643.49836498 C-179.32412954 643.49764894 -182.89211676 643.49697455 -186.46010399 643.49632454 C-187.33861542 643.49615473 -188.21712685 643.49598492 -189.12225984 643.49580997 C-202.37691751 643.49350811 -215.63154363 643.50147858 -228.88619423 643.51461601 C-243.96274894 643.5295327 -259.03922976 643.53036316 -274.11578289 643.5125451 C-282.54907429 643.50298827 -290.98219327 643.50440429 -299.41547312 643.52177979 C-305.05435474 643.53228402 -310.6931053 643.52814823 -316.33197405 643.51229975 C-319.54107832 643.50368425 -322.74977985 643.50342642 -325.95887855 643.51656907 C-342.91212337 643.5810528 -357.71611298 643.29536708 -372 633 C-372.70769531 632.49855469 -373.41539062 631.99710938 -374.14453125 631.48046875 C-383.95917801 623.76762015 -388.72918253 612.00289235 -391 600 C-391.75514103 585.82537361 -384.74651967 573.90237699 -378 562 C-377.0049434 560.22801333 -376.01016338 558.45587133 -375.015625 556.68359375 C-372.8350374 552.80834336 -370.64335657 548.93959203 -368.4453125 545.07421875 C-364.99577239 539.00377167 -361.590149 532.90931442 -358.1875 526.8125 C-352.86950201 517.29271881 -347.4754124 507.81804387 -342.04971313 498.35940552 C-337.08303985 489.69700679 -332.20254867 480.99097927 -327.375 472.25 C-322.63129617 463.66151055 -317.78719113 455.14426904 -312.8125 446.6875 C-307.86682606 438.27840719 -303.1025838 429.7926691 -298.46362305 421.2109375 C-294.39653523 413.69459847 -290.21315231 406.24905542 -285.99584961 398.81616211 C-281.9724119 391.72451711 -277.97859383 384.61689544 -274 377.5 C-268.98909013 368.5396965 -263.95227608 359.59456483 -258.89233398 350.66186523 C-256.10200038 345.73206496 -253.32403742 340.79583449 -250.56640625 335.84765625 C-244.78934366 325.48318761 -238.95547508 315.16429901 -232.9375 304.9375 C-227.67568674 295.98926668 -222.65908921 286.93325213 -217.75146484 277.78662109 C-213.81188601 270.45692154 -209.74037854 263.21483688 -205.58935547 256.00317383 C-201.67418589 249.19744289 -197.82704628 242.35563653 -194 235.5 C-189.70547472 227.81064867 -185.38211281 220.13978104 -181 212.5 C-174.24385497 200.71670673 -167.62265876 188.85867578 -161 177 C-153.89897626 164.28475357 -146.78143349 151.58158561 -139.53637695 138.94775391 C-135.0653756 131.14030565 -130.67014957 123.29132029 -126.28125 115.4375 C-122.37383631 108.44709398 -118.44584914 101.46877696 -114.5 94.5 C-109.97792323 86.51225862 -105.4804047 78.51118864 -101 70.5 C-95.96809957 61.50388791 -90.92639889 52.5134872 -85.83300781 43.55200195 C-83.05235359 38.65620353 -80.30687573 33.74509227 -77.61328125 28.80078125 C-67.98044421 11.21709735 -58.28899775 -3.32425372 -38.125 -9.25 C-24.43505458 -12.22020512 -11.15159533 -8.13747343 0 0 Z M-30 37 C-30.3309668 37.61705811 -30.66193359 38.23411621 -31.00292969 38.86987305 C-37.33560585 50.6602875 -43.73740774 62.39891632 -50.41162109 73.99975586 C-54.27891318 80.72435807 -58.08929682 87.47914325 -61.875 94.25 C-62.45870361 95.29373779 -63.04240723 96.33747559 -63.64379883 97.4128418 C-65.42992721 100.60815509 -67.21513442 103.80398116 -69 107 C-76.10102374 119.71524643 -83.21856651 132.41841439 -90.46362305 145.05224609 C-94.9346244 152.85969435 -99.32985043 160.70867971 -103.71875 168.5625 C-108.15818778 176.50470298 -112.62847829 184.42895008 -117.11181641 192.34643555 C-121.03541867 199.28050005 -124.92771314 206.23163164 -128.8125 213.1875 C-133.82310554 222.15502669 -138.89327182 231.08701764 -144 240 C-150.83449208 251.92977224 -157.57809404 263.90854385 -164.27783203 275.91455078 C-174.32822847 293.92091741 -184.44479866 311.88910877 -194.60449219 329.83398438 C-204.31665465 346.99115405 -213.959724 364.18636468 -223.57421875 381.3984375 C-229.51366999 392.02590005 -235.48418677 402.63343138 -241.53613281 413.19726562 C-250.37665534 428.6316127 -259.08690017 444.13923249 -267.76904297 459.66308594 C-272.19209307 467.5679552 -276.6431659 475.45661406 -281.10766602 483.33813477 C-283.89799962 488.26793504 -286.67596258 493.20416551 -289.43359375 498.15234375 C-295.21065634 508.51681239 -301.04452492 518.83570099 -307.0625 529.0625 C-312.31746968 537.99909514 -317.3296618 547.04228871 -322.22875977 556.17822266 C-326.78679271 564.66221893 -331.53316762 573.02829515 -336.34375 581.37109375 C-337.22986975 582.91365883 -338.11528549 584.45662854 -339 586 C-339.47953125 586.83289551 -339.9590625 587.66579102 -340.453125 588.52392578 C-341.14148438 589.73604736 -341.14148438 589.73604736 -341.84375 590.97265625 C-342.25818359 591.698479 -342.67261719 592.42430176 -343.09960938 593.17211914 C-344.14729527 594.95942222 -344.14729527 594.95942222 -344 597 C-136.43 597 71.14 597 285 597 C283.64688618 593.61721544 282.36135473 590.66257649 280.63671875 587.5078125 C279.93518677 586.22161011 279.93518677 586.22161011 279.21948242 584.90942383 C278.71392822 583.99056396 278.20837402 583.0717041 277.6875 582.125 C277.15552002 581.15393311 276.62354004 580.18286621 276.07543945 579.18237305 C271.80276508 571.40631816 267.44906498 563.67742018 263.0690918 555.96142578 C258.8355151 548.49836185 254.6588716 541.00491882 250.5 533.5 C245.86944516 525.14585748 241.21142092 516.80881128 236.5 508.5 C231.13940011 499.04633122 225.85462749 489.55202183 220.5859375 480.046875 C216.59060758 472.84541613 212.56222204 465.66391868 208.5 458.5 C203.13940011 449.04633122 197.85462749 439.55202183 192.5859375 430.046875 C188.59060758 422.84541613 184.56222204 415.66391868 180.5 408.5 C175.13940011 399.04633122 169.85462749 389.55202183 164.5859375 380.046875 C160.5906071 372.84541527 156.56214427 365.66396335 152.5 358.5 C144.32947797 344.08759826 136.31124996 329.59081828 128.28515625 315.09765625 C123.26701968 306.04204185 118.19271598 297.01956395 113.09277344 288.00976562 C100.70159248 266.11075006 88.47839948 244.11732596 76.2890625 222.10546875 C71.27168047 213.04985197 66.19829012 204.02727203 61.09716797 195.01855469 C56.44746628 186.80331375 51.83364471 178.56832981 47.22705078 170.32885742 C43.9042536 164.3892541 40.56521544 158.45935188 37.20727539 152.53955078 C31.76047485 142.93684396 26.38624683 133.29630657 21.0625 123.625 C11.10760741 105.54102635 1.03590056 87.522742 -9.15454102 69.5703125 C-11.9989721 64.55776083 -14.81579705 59.53196465 -17.59765625 54.484375 C-18.18796631 53.42041504 -18.77827637 52.35645508 -19.38647461 51.26025391 C-20.52369945 49.20938444 -21.65372863 47.15450417 -22.77563477 45.09521484 C-23.28537842 44.17949707 -23.79512207 43.2637793 -24.3203125 42.3203125 C-24.76648926 41.50836426 -25.21266602 40.69641602 -25.67236328 39.85986328 C-26.94490455 37.69146919 -26.94490455 37.69146919 -30 37 Z " fill="#FCE700" transform="translate(428,83)"/>
<path d="M0 0 C26.07 0 52.14 0 79 0 C80.03480088 3.10440263 80.04660762 4.90891551 79.88142395 8.14169312 C79.80382056 9.74295988 79.80382056 9.74295988 79.72464943 11.37657547 C79.63048776 13.13802462 79.63048776 13.13802462 79.53442383 14.93505859 C79.44175767 16.79608782 79.44175767 16.79608782 79.34721947 18.69471359 C79.17534411 22.12465195 78.99836232 25.55425875 78.81928802 28.98382425 C78.63000216 32.63376617 78.44745999 36.28404529 78.26423645 39.93429565 C77.95022148 46.17321823 77.6323118 52.4119317 77.31158447 58.6505127 C76.81312644 68.34715485 76.32136884 78.04412927 75.83154297 87.74121094 C75.79117527 88.54032017 75.75080756 89.3394294 75.70921659 90.16275406 C75.54636449 93.38692236 75.38353944 96.61109203 75.22082067 99.83526707 C75.01769561 103.85980643 74.81430893 107.88433224 74.6103363 111.90882874 C73.59116388 132.01813049 72.59896973 152.12820053 71.67578125 172.2421875 C71.60488879 173.78209665 71.60488879 173.78209665 71.53256416 175.35311508 C71.10438584 184.65902242 70.68103414 193.96512027 70.26960659 203.27178383 C70.12501886 206.52325339 69.97687957 209.77455412 69.82782555 213.02582169 C69.72984545 215.19301052 69.63702179 217.36037876 69.54438782 219.52780151 C69.45788216 221.40557785 69.45788216 221.40557785 69.36962891 223.32128906 C69.29804062 224.94505463 69.29804062 224.94505463 69.2250061 226.60162354 C69 229 69 229 68 230 C66.22008076 230.09370624 64.43643261 230.11744271 62.65405273 230.11352539 C61.5129454 230.11344986 60.37183807 230.11337433 59.19615173 230.11329651 C57.9545076 230.10813522 56.71286346 230.10297394 55.43359375 230.09765625 C53.53795433 230.09553383 53.53795433 230.09553383 51.60401917 230.09336853 C48.23875111 230.08870582 44.8735501 230.0797148 41.50830078 230.06866455 C38.0765033 230.05844846 34.64469891 230.05387049 31.21289062 230.04882812 C24.47524176 230.0377738 17.73762475 230.0210171 11 230 C9.87482575 224.36774308 9.65612245 218.75975195 9.39916992 213.0378418 C9.346854 211.93659879 9.29453808 210.83535578 9.24063683 209.70074177 C9.06724442 206.0337159 8.89889316 202.36647589 8.73046875 198.69921875 C8.60848569 196.10154668 8.48615913 193.50389072 8.36351013 190.90625 C8.10278409 185.37488792 7.84447767 179.84341754 7.58795166 174.31185913 C7.02082476 162.08346383 6.44568098 149.85544492 5.87062407 137.62742037 C5.70132076 134.02733184 5.53217063 130.42723626 5.36338043 126.82712364 C4.50979222 108.62283629 3.63490497 90.41982004 2.71484375 72.21875 C2.61879867 70.31281083 2.52276471 68.40687111 2.42674255 66.50093079 C2.03628591 58.76266785 1.64320279 51.0245627 1.24098682 43.28690147 C1.08220368 40.21628687 0.92682458 37.1455063 0.77226448 34.07467651 C0.6701599 32.0689926 0.56354786 30.06353961 0.45664978 28.05810547 C-0.01301639 18.66835219 0 9.436273 0 0 Z " fill="#FDE800" transform="translate(359,279)"/>
<path d="M0 0 C11.20259274 8.20702765 16.29850022 18.97222854 18.6875 32.4375 C20.24968366 46.05081478 16.93669991 58.1103565 9.125 69.25 C6.75 72 6.75 72 4.125 74.25 C3.56296875 74.74113281 3.0009375 75.23226562 2.421875 75.73828125 C-7.74973988 84.06990889 -20.05156982 86.09037042 -32.875 85.25 C-41.30068458 83.9946581 -47.89928352 81.06841157 -54.875 76.25 C-56.2053125 75.38375 -56.2053125 75.38375 -57.5625 74.5 C-67.55288441 64.77962598 -71.736614 52.64388155 -72.0625 38.9375 C-71.90166245 25.87391701 -67.67116319 14.50458291 -58.875 4.75 C-43.61386316 -10.05166175 -17.54452692 -10.81026406 0 0 Z " fill="#FCE800" transform="translate(424.875,541.75)"/>
</svg>
