<svg width="14" height="14" viewBox="0 0 14 14" fill="none" xmlns="http://www.w3.org/2000/svg">
<path d="M7.00002 0.5C6.10257 0.5 5.37502 1.22754 5.37502 2.125C5.37502 2.13606 5.37513 2.1471 5.37535 2.15811C5.38952 2.86678 5.86841 3.46767 6.51139 3.67524L7.48639 3.67596C8.14217 3.46681 8.62502 2.85012 8.62502 2.125C8.62502 1.22754 7.89748 0.5 7.00002 0.5Z" fill="#72767D"/>
<path d="M2.61143 8.30002C2.61143 7.85126 2.97519 7.48752 3.42393 7.48752H6.51139V10.3249C5.8527 10.5323 5.37502 11.1479 5.37502 11.8751C5.37502 12.7726 6.10257 13.5001 7.00002 13.5001C7.89748 13.5001 8.62502 12.7726 8.62502 11.8751C8.62502 11.1471 8.14625 10.5309 7.48639 10.3242V7.48752H10.5739C11.0227 7.48752 11.3864 7.85126 11.3864 8.30002V10.3249C10.7277 10.5323 10.25 11.1479 10.25 11.8751C10.25 12.7726 10.9776 13.5001 11.875 13.5001C12.7725 13.5001 13.5 12.7726 13.5 11.8751C13.5 11.1471 13.0213 10.5309 12.3614 10.3242V8.30002C12.3614 7.3128 11.5611 6.51252 10.5739 6.51252H7.48639V3.67596L6.51139 3.67524V6.51252H3.42393C2.43672 6.51252 1.63643 7.3128 1.63643 8.30002V10.3248C0.977704 10.5322 0.5 11.1479 0.5 11.8751C0.5 12.7726 1.22754 13.5001 2.125 13.5001C3.02246 13.5001 3.75 12.7726 3.75 11.8751C3.75 11.1471 3.27126 10.5309 2.61143 10.3242V8.30002Z" fill="#72767D"/>
</svg>
