<!--<svg width="14" height="12" viewBox="0 0 14 12" fill="none" xmlns="http://www.w3.org/2000/svg">-->
<!--<path fill-rule="evenodd" clip-rule="evenodd" d="M8.18181 6.99743C8.18181 7.64714 7.64999 8.17875 7.00002 8.17875C6.35001 8.17875 5.81819 7.64714 5.81819 6.99743C5.81819 6.34767 6.35001 5.81606 7.00002 5.81606C7.64999 5.81606 8.18181 6.34767 8.18181 6.99743ZM4.93182 11.1321V10.8368C4.93182 9.83267 5.78273 9.06476 7.00002 9.06476C8.21727 9.06476 9.06818 9.83267 9.06818 10.8368V11.1321H4.93182ZM4.04546 6.99743C4.04546 5.36716 5.36911 4.04403 7.00002 4.04403C8.63093 4.04403 9.95454 5.36716 9.95454 6.99743C9.95454 7.53493 9.80093 8.03109 9.54681 8.46821L10.3209 8.91711C10.6459 8.35006 10.8409 7.7003 10.8409 6.99743C10.8409 4.88278 9.11546 3.15802 7.00002 3.15802C4.88453 3.15802 3.1591 4.88278 3.1591 6.99743C3.1591 7.69441 3.34819 8.35006 3.6791 8.91711L4.45318 8.46821C4.19911 8.03109 4.04546 7.53493 4.04546 6.99743Z" fill="#72767D"/>-->
<!--<path d="M7.00002 1.38601C3.89773 1.38601 1.38636 3.8964 1.38636 6.99745C1.38636 8.01929 1.66409 8.97618 2.13682 9.79725L1.37455 10.2403C0.825003 9.28925 0.5 8.17877 0.5 6.99745C0.5 3.41202 3.41319 0.5 7.00002 0.5C10.5868 0.5 13.5 3.41202 13.5 6.99745C13.5 8.17877 13.175 9.28925 12.6196 10.2461L11.8573 9.80314C12.3359 8.97618 12.6136 8.01929 12.6136 6.99745C12.6136 3.8964 10.1023 1.38601 7.00002 1.38601Z" fill="#72767D"/>-->
<!--</svg>-->
<svg class="icon__2ea32" aria-hidden="true" role="img" xmlns="http://www.w3.org/2000/svg" width="24" height="24" fill="none" viewBox="0 0 24 24"><path fill="#72767D" fill-rule="evenodd" d="M10.99 3.16A1 1 0 1 0 9 2.84L8.15 8H4a1 1 0 0 0 0 2h3.82l-.67 4H3a1 1 0 1 0 0 2h3.82l-.8 4.84a1 1 0 0 0 1.97.32L8.85 16h4.97l-.8 4.84a1 1 0 0 0 1.97.32l.86-5.16H20a1 1 0 1 0 0-2h-3.82l.67-4H21a1 1 0 1 0 0-2h-3.82l.8-4.84a1 1 0 1 0-1.97-.32L15.15 8h-4.97l.8-4.84ZM14.15 14l.67-4H9.85l-.67 4h4.97Z" clip-rule="evenodd" class=""></path></svg>