<svg width="13" height="11" viewBox="0 0 13 11" fill="none" xmlns="http://www.w3.org/2000/svg">
<path fill-rule="evenodd" clip-rule="evenodd" d="M7.79998 2.89998C7.79998 4.33324 6.63389 5.49999 5.19999 5.49999C3.76674 5.49999 2.59999 4.33324 2.59999 2.89998C2.59999 1.46674 3.76609 0.299988 5.19999 0.299988C6.63389 0.299988 7.79998 1.46674 7.79998 2.89998ZM0 10.05C0 7.75354 2.1385 6.14999 5.19999 6.14999C8.26213 6.14999 10.4 7.75354 10.4 10.05V10.7H0V10.05ZM11.7 10.7H13V10.05C13 8.38423 11.8752 7.08306 10.0888 6.49397C11.0903 7.38934 11.7 8.61992 11.7 10.05V10.7ZM10.4 2.89998C10.4 4.1361 9.53267 5.17395 8.37417 5.43609C8.32139 5.41438 8.26816 5.39326 8.21453 5.37272C8.76775 4.69932 9.10003 3.83786 9.10003 2.89998C9.10003 1.9115 8.73089 1.00792 8.12308 0.319953C9.40501 0.479515 10.4 1.57605 10.4 2.89998Z" fill="#72767D"/>
</svg>
