<?xml version="1.0" encoding="UTF-8"?>
<svg version="1.1" xmlns="http://www.w3.org/2000/svg" width="512" height="512">
<path d="M0 0 C0.69851074 0.22913086 1.39702148 0.45826172 2.11669922 0.69433594 C38.25874086 12.8267923 70.31589871 35.00247301 95 64 C95.73605469 64.84304687 96.47210938 65.68609375 97.23046875 66.5546875 C134.13925155 110.31480124 150.0428575 167.36283433 145.3125 223.9375 C141.1140151 267.51972605 123.65277431 308.90733634 95 342 C94.29488281 342.81597656 93.58976562 343.63195312 92.86328125 344.47265625 C82.78886095 355.88550941 72.21700844 365.93770631 60 375 C59.14792969 375.63550781 58.29585938 376.27101563 57.41796875 376.92578125 C27.89169566 398.225829 -7.69511425 412.45693764 -44 416 C-45.04800781 416.10957031 -46.09601563 416.21914063 -47.17578125 416.33203125 C-101.59836743 421.12838138 -158.66355446 405.95735274 -201.12817383 370.87109375 C-203.7889778 368.62164695 -206.39844808 366.31746013 -209 364 C-209.5048291 363.55688477 -210.0096582 363.11376953 -210.52978516 362.65722656 C-253.29702164 325.0659927 -277.42437853 272.47525985 -281.54467773 215.93920898 C-282.19436401 205.68268631 -282.15236191 195.60734671 -281.1875 185.375 C-281.09766846 184.42133545 -281.00783691 183.4676709 -280.9152832 182.48510742 C-275.71747612 130.22288402 -251.25951373 76.83793342 -210.24609375 42.81640625 C-209.50488281 42.21699219 -208.76367188 41.61757812 -208 41 C-206.94883453 40.11373676 -205.89809415 39.22696922 -204.84765625 38.33984375 C-195.14962152 30.25770519 -184.85093473 23.43413912 -174 17 C-173.36126953 16.61859863 -172.72253906 16.23719727 -172.06445312 15.84423828 C-121.04471275 -14.19425707 -55.56985599 -18.28585721 0 0 Z M-154 56 C-154.87398438 56.51949219 -155.74796875 57.03898437 -156.6484375 57.57421875 C-171.91344847 66.9562957 -186.86430541 78.87611063 -198 93 C-198.43135254 93.5460791 -198.86270508 94.0921582 -199.30712891 94.65478516 C-228.84020784 132.31315859 -242.85908932 177.36814222 -237.23022461 225.32250977 C-231.19581965 268.68313094 -208.08702212 310.28433897 -173.3671875 337.26904297 C-169.33257368 340.30997193 -165.19191665 343.1812565 -161 346 C-159.47632813 347.03447266 -159.47632813 347.03447266 -157.921875 348.08984375 C-123.3140265 370.4962072 -76.89356081 379.37581104 -36.3671875 371.0390625 C-34.90923284 370.7021993 -33.4535676 370.35531653 -32 370 C-30.73591309 369.69400879 -30.73591309 369.69400879 -29.44628906 369.38183594 C-17.41738157 366.38007079 -6.16555902 362.36336896 5 357 C6.07765625 356.4946875 7.1553125 355.989375 8.265625 355.46875 C48.17617827 336.22981663 78.6456475 299.96533725 93.41650391 258.50488281 C103.87794633 227.90897332 105.33609576 194.4783008 98 163 C97.81808105 162.21786133 97.63616211 161.43572266 97.44873047 160.62988281 C88.82111208 125.14793481 66.30502798 90.75303198 37 69 C36.48147461 68.60651367 35.96294922 68.21302734 35.42871094 67.80761719 C-19.02217568 26.59199033 -94.87007334 20.42818698 -154 56 Z " fill="#F54A33" transform="translate(324,53)"/>
<path d="M0 0 C14.52 0 29.04 0 44 0 C44 42.57 44 85.14 44 129 C29.48 129 14.96 129 0 129 C0 86.43 0 43.86 0 0 Z " fill="#F54A33" transform="translate(234,149)"/>
<path d="M0 0 C14.52 0 29.04 0 44 0 C44 14.19 44 28.38 44 43 C29.48 43 14.96 43 0 43 C0 28.81 0 14.62 0 0 Z " fill="#F54A33" transform="translate(234,320)"/>
</svg>
